<?xml version="1.0" encoding="utf-8"?>
<!-- Generator: Adobe Illustrator 16.2.1, SVG Export Plug-In . SVG Version: 6.00 Build 0)  -->
<!DOCTYPE svg PUBLIC "-//W3C//DTD SVG 1.1//EN" "http://www.w3.org/Graphics/SVG/1.1/DTD/svg11.dtd">
<svg version="1.1" id="Layer_1" xmlns="http://www.w3.org/2000/svg" xmlns:xlink="http://www.w3.org/1999/xlink" x="0px" y="0px"
	 width="100px" height="100px" viewBox="0 -34 100 100" enable-background="new 0 -34 100 100" xml:space="preserve">
<path fill="#38434D" d="M50-34C22.388-34,0-11.612,0,16c0,27.618,22.388,50,50,50c27.615,0,50-22.382,50-50
	C100-11.612,77.615-34,50-34z M60.712,16.019h-7.007c0,11.193,0,24.981,0,24.981H43.324c0,0,0-13.647,0-24.981h-4.937V7.194h4.937
	V1.481C43.324-2.609,45.266-9,53.803-9l7.69,0.03V-0.4c0,0-4.676,0-5.579,0c-0.909,0-2.203,0.454-2.203,2.407v5.188h7.916
	L60.712,16.019z"/>
</svg>
