<?xml version="1.0" encoding="utf-8"?>
<!-- Generator: Adobe Illustrator 16.2.1, SVG Export Plug-In . SVG Version: 6.00 Build 0)  -->
<!DOCTYPE svg PUBLIC "-//W3C//DTD SVG 1.1//EN" "http://www.w3.org/Graphics/SVG/1.1/DTD/svg11.dtd">
<svg version="1.1" id="Layer_1" xmlns="http://www.w3.org/2000/svg" xmlns:xlink="http://www.w3.org/1999/xlink" x="0px" y="0px"
	 width="100px" height="100px" viewBox="0 -34 100 100" enable-background="new 0 -34 100 100" xml:space="preserve">
<g>
	<path fill="#38434D" d="M42.51,28.799c-1.888-5.756-0.551-9.338-2.71-11.603c-4.163-4.366-5.046-7.906-4.828-11.111
		c0.409-5.826,5.566-5.981,7.416-9.482c0.453-1.147-0.684-1.3-1.538-0.934C33.103-0.838,27.71,6.95,27.71,15.997
		c0,10.751,7.619,19.724,17.743,21.823c0.05,0.006,0.115,0.021,0.199,0.043c0.013,0,0.026,0.003,0.039,0.006
		c1.434,0.317,1.684-0.895,0.718-1.887C44.981,34.396,43.682,32.363,42.51,28.799z"/>
	<path fill="#38434D" d="M50.003-6.29c-0.877,0-1.741,0.052-2.594,0.149c-1.153,0.131-1.861,1.077-1.875,1.987
		c0.02,0.172,0.038,0.342,0.073,0.51c0.018,0.072,0.024,0.122,0.024,0.154C46.016-1.753,47.341-0.382,50-1.516
		c1.972-0.844,4.56-0.791,5.634,0.531c1.172,1.449,1.556,4.094-1.056,5.751c-3.534,2.237-4.206,2.839-3.938,5.618
		c0.152,1.59,1.209,2.896,0.031,3.305c-0.878,0.31-1.611-0.731-3.338-2.312c-1.734-1.594-6.512,0.462-4.431,5.257
		c1.593,3.668,9.654-0.594,14.28,3.241c4.633,3.833-1.983,6.763-3.967,11.258c-0.696,1.577-1.025,2.966-1.16,4.102
		c-0.079,1.017,0.458,2.768,1.752,2.734c0.171-0.027,0.336-0.064,0.5-0.092c0.172-0.058,0.275-0.076,0.342-0.07
		c7.001-1.486,12.787-6.256,15.668-12.628c0.721-1.795-0.305-4.413-3.613-6.128c-3.308-1.718-4.36-4.895-0.524-5.551
		c3.833-0.664,5.09-3.506,4.479-5.865C67.358-0.534,59.348-6.29,50.003-6.29z"/>
	<path fill="#38434D" d="M50-34C22.388-34,0-11.612,0,16c0,27.618,22.388,50,50,50c27.615,0,50-22.382,50-50
		C100-11.612,77.615-34,50-34z M50.003,43.45C34.841,43.45,22.55,31.155,22.55,16c0-15.163,12.294-27.451,27.453-27.451
		C65.161-11.451,77.45,0.84,77.45,16C77.45,31.161,65.167,43.45,50.003,43.45z"/>
</g>
</svg>
