<?xml version="1.0" encoding="utf-8"?>
<!-- Generator: Adobe Illustrator 16.2.1, SVG Export Plug-In . SVG Version: 6.00 Build 0)  -->
<!DOCTYPE svg PUBLIC "-//W3C//DTD SVG 1.1//EN" "http://www.w3.org/Graphics/SVG/1.1/DTD/svg11.dtd">
<svg version="1.1" id="Layer_1" xmlns="http://www.w3.org/2000/svg" xmlns:xlink="http://www.w3.org/1999/xlink" x="0px" y="0px"
	 width="100px" height="100px" viewBox="0 -34 100 100" enable-background="new 0 -34 100 100" xml:space="preserve">
<path fill="#38434D" d="M50-34C22.388-34,0-11.612,0,16c0,27.615,22.388,50,50,50s50-22.382,50-50C100-11.612,77.612-34,50-34z
	 M69.879,5.806c0.024,0.441,0.034,0.879,0.034,1.326c0,13.553-10.318,29.184-29.188,29.184c-5.794,0-11.185-1.696-15.726-4.611
	c0.806,0.092,1.622,0.141,2.447,0.141c4.809,0,9.228-1.633,12.736-4.386c-4.487-0.082-8.274-3.055-9.577-7.119
	c0.625,0.112,1.267,0.183,1.929,0.183c0.937,0,1.843-0.128,2.699-0.36c-4.688-0.945-8.228-5.087-8.228-10.055
	c0-0.044,0-0.085,0-0.128c1.384,0.768,2.965,1.227,4.646,1.28c-2.752-1.837-4.562-4.98-4.562-8.538c0-1.881,0.506-3.644,1.387-5.156
	C33.534,3.771,41.097,7.856,49.621,8.285c-0.174-0.751-0.265-1.532-0.265-2.338c0-5.662,4.593-10.254,10.26-10.254
	c2.944,0,5.615,1.244,7.485,3.235c2.338-0.457,4.532-1.312,6.52-2.49c-0.77,2.398-2.396,4.405-4.511,5.674
	C71.186,1.869,73.163,1.312,75,0.5C73.627,2.554,71.887,4.359,69.879,5.806z"/>
</svg>
