<?xml version="1.0" encoding="utf-8"?>
<!-- Generator: Adobe Illustrator 16.2.1, SVG Export Plug-In . SVG Version: 6.00 Build 0)  -->
<!DOCTYPE svg PUBLIC "-//W3C//DTD SVG 1.1//EN" "http://www.w3.org/Graphics/SVG/1.1/DTD/svg11.dtd">
<svg version="1.1" id="Layer_1" xmlns="http://www.w3.org/2000/svg" xmlns:xlink="http://www.w3.org/1999/xlink" x="0px" y="0px"
	 width="100px" height="100px" viewBox="0 -34 100 100" enable-background="new 0 -34 100 100" xml:space="preserve">
<g>
	<path fill="#38434D" d="M63.861,16.388c0,7.392-6.187,13.385-13.817,13.385c-7.632,0-13.822-5.993-13.822-13.385
		c0-1.325,0.196-2.606,0.575-3.816h-4.085v18.782c0,0.974,0.795,1.761,1.767,1.761h30.957c0.971,0,1.768-0.794,1.768-1.761V12.571
		H63.29C63.66,13.781,63.861,15.063,63.861,16.388z"/>
	<ellipse fill="#38434D" cx="50.044" cy="15.899" rx="8.929" ry="8.652"/>
	<path fill="#38434D" d="M60.156,7.507h5.023c1.104,0,2.002-0.903,2.002-2.009V0.712c0-1.1-0.897-2.003-2.002-2.003h-5.023
		c-1.099,0-2.002,0.903-2.002,2.003v4.785C58.154,6.604,59.058,7.507,60.156,7.507z"/>
	<path fill="#38434D" d="M50-34C22.388-34,0-11.609,0,16c0,27.618,22.388,50,50,50c27.615,0,50-22.382,50-50
		C100-11.609,77.615-34,50-34z M72.229,32.525c0,3.131-2.569,5.697-5.706,5.697H33.475c-3.134,0-5.702-2.566-5.702-5.697V-0.528
		c0-3.137,2.568-5.699,5.702-5.699h33.048c3.137,0,5.706,2.562,5.706,5.699V32.525z"/>
</g>
</svg>
