<?xml version="1.0" encoding="utf-8"?>
<!-- Generator: Adobe Illustrator 16.2.1, SVG Export Plug-In . SVG Version: 6.00 Build 0)  -->
<!DOCTYPE svg PUBLIC "-//W3C//DTD SVG 1.1//EN" "http://www.w3.org/Graphics/SVG/1.1/DTD/svg11.dtd">
<svg version="1.1" id="Layer_1" xmlns="http://www.w3.org/2000/svg" xmlns:xlink="http://www.w3.org/1999/xlink" x="0px" y="0px"
	 width="519.635px" height="110px" viewBox="0 0 519.635 110" enable-background="new 0 0 519.635 110" xml:space="preserve">
<g>
	<path fill="#38434D" d="M46.934,4.693H65.56L77.293,39.16L89.027,4.693H107.8L90.053,52.066l13.2,33.293L132.733,4.4h22
		l-42.387,104.133H95.333l-18.04-43.707l-18.04,43.707H42.24L0,4.4h21.854L51.48,85.359l12.907-33.293L46.934,4.693z"/>
	<path fill="#38434D" d="M180.985,110c-6.259,0-11.88-1.077-16.867-3.227c-4.986-2.15-9.217-5.061-12.687-8.727
		c-3.472-3.667-6.137-7.895-7.993-12.688c-1.858-4.789-2.787-9.826-2.787-15.105c0-5.377,0.928-10.462,2.787-15.254
		c1.856-4.79,4.521-9.02,7.993-12.687c3.47-3.666,7.7-6.575,12.687-8.727c4.987-2.149,10.608-3.227,16.867-3.227
		c6.256,0,11.855,1.077,16.793,3.227c4.936,2.152,9.141,5.061,12.613,8.727c3.47,3.667,6.135,7.897,7.993,12.687
		c1.856,4.792,2.787,9.877,2.787,15.254c0,5.279-0.931,10.316-2.787,15.105c-1.858,4.793-4.499,9.021-7.92,12.688
		c-3.424,3.666-7.626,6.576-12.613,8.727C192.866,108.923,187.242,110,180.985,110z M160.892,70.254c0,3.424,0.513,6.526,1.54,9.312
		c1.027,2.787,2.443,5.207,4.253,7.26c1.808,2.054,3.935,3.645,6.38,4.768c2.443,1.125,5.083,1.686,7.92,1.686
		c2.835,0,5.475-0.561,7.92-1.686c2.443-1.123,4.569-2.714,6.38-4.768c1.808-2.053,3.227-4.496,4.253-7.333
		c1.027-2.835,1.54-5.963,1.54-9.387c0-3.323-0.513-6.403-1.54-9.239c-1.026-2.836-2.445-5.281-4.253-7.334
		c-1.811-2.053-3.937-3.641-6.38-4.767c-2.446-1.123-5.085-1.687-7.92-1.687c-2.837,0-5.477,0.586-7.92,1.76
		c-2.445,1.173-4.572,2.787-6.38,4.84c-1.811,2.053-3.227,4.498-4.253,7.333S160.892,66.931,160.892,70.254z"/>
	<path fill="#38434D" d="M276.904,48.693c-5.965,0.099-11.293,1.247-15.986,3.446c-4.693,2.2-8.066,5.501-10.119,9.899v46.494
		h-19.654V31.68h18.04v16.427c2.64-5.28,6.087-9.533,10.341-12.76c4.252-3.227,8.727-4.84,13.42-4.84
		c1.074,0,1.881,0.025,2.42,0.074c0.536,0.05,1.049,0.124,1.539,0.22V48.693z"/>
	<path fill="#38434D" d="M337.477,108.533L315.184,75.24l-10.56,10.413v22.88h-19.653V1.466h19.653v64.973l30.8-34.613h20.973
		l-28.746,32.56l30.801,44.146H337.477z"/>
	<path fill="#38434D" d="M406.85,109.267c-7.334,0-14.033-1.489-20.094-4.474c-6.064-2.98-11.27-6.941-15.619-11.88
		c-4.354-4.937-7.701-10.583-10.047-16.94c-2.348-6.354-3.521-12.855-3.521-19.506c0-6.942,1.248-13.59,3.74-19.947
		c2.494-6.355,5.963-11.977,10.414-16.867c4.447-4.888,9.703-8.775,15.768-11.66c6.061-2.883,12.66-4.327,19.799-4.327
		c7.334,0,14.029,1.54,20.094,4.62c6.061,3.08,11.242,7.113,15.547,12.1c4.301,4.987,7.627,10.658,9.973,17.013
		c2.346,6.357,3.52,12.811,3.52,19.36c0,6.943-1.246,13.566-3.74,19.873c-2.492,6.307-5.939,11.881-10.34,16.721
		c-4.398,4.84-9.631,8.703-15.693,11.586C420.586,107.825,413.986,109.267,406.85,109.267z M377.955,56.467
		c0,4.498,0.66,8.85,1.98,13.053c1.32,4.205,3.227,7.92,5.721,11.146c2.492,3.227,5.547,5.818,9.166,7.773
		c3.617,1.957,7.723,2.934,12.32,2.934c4.693,0,8.822-1.002,12.393-3.007c3.568-2.003,6.576-4.668,9.021-7.993
		c2.441-3.322,4.301-7.062,5.572-11.22c1.27-4.155,1.906-8.384,1.906-12.687c0-4.497-0.686-8.849-2.053-13.054
		c-1.371-4.203-3.301-7.92-5.793-11.146c-2.494-3.227-5.525-5.793-9.094-7.7c-3.57-1.906-7.604-2.86-12.1-2.86
		c-4.693,0-8.826,1.004-12.395,3.007c-3.57,2.005-6.6,4.645-9.092,7.92c-2.494,3.277-4.377,6.992-5.646,11.146
		C378.59,47.937,377.955,52.165,377.955,56.467z"/>
	<path fill="#38434D" d="M475.047,108.533v-52.8h-9.973V40.627h9.973v-9.534c0-9.582,2.322-17.16,6.967-22.733
		C486.656,2.787,492.891,0,500.715,0c6.256,0,12.562,1.517,18.92,4.547l-3.961,14.813c-1.467-0.781-3.203-1.441-5.207-1.98
		c-2.004-0.536-3.838-0.807-5.5-0.807c-6.844,0-10.266,4.597-10.266,13.787v10.267h18.773v15.106h-18.773v52.8H475.047z"/>
</g>
</svg>
